# This file uses centimeters as units for non-parametric coordinates.

mtllib viewcone.mtl
g default
v 0.500000 -0.060560 1.000000
v -0.500000 -0.060560 1.000000
v -1.000000 -0.000000 1.000000
v -0.500000 0.060560 1.000000
v 0.500000 0.060560 1.000000
v 1.000000 -0.000000 1.000000
v 0.000000 0.000000 -1.000000
vt 0.750000 0.000000
vt 1.000000 0.000000
vt 0.750000 0.000000
vt 0.250000 0.000000
vt 0.000000 0.000000
vt 0.250000 0.000000
vt 0.500000 1.000000
vn 0.000000 -0.000000 1.000000
vn 0.000000 -0.000000 1.000000
vn 0.000000 -0.000000 1.000000
vn 0.000000 -0.000000 1.000000
vn 0.000000 -0.000000 1.000000
vn 0.000000 -0.000000 1.000000
vn 0.000000 -0.999542 -0.030266
vn 0.000000 -0.999542 -0.030266
vn 0.000000 -0.999542 -0.030266
vn -0.120025 -0.990955 -0.060012
vn -0.120025 -0.990955 -0.060012
vn -0.120025 -0.990955 -0.060012
vn -0.120025 0.990955 -0.060012
vn -0.120025 0.990955 -0.060012
vn -0.120025 0.990955 -0.060012
vn -0.000000 0.999542 -0.030266
vn -0.000000 0.999542 -0.030266
vn -0.000000 0.999542 -0.030266
vn 0.120025 0.990955 -0.060012
vn 0.120025 0.990955 -0.060012
vn 0.120025 0.990955 -0.060012
vn 0.120025 -0.990955 -0.060012
vn 0.120025 -0.990955 -0.060012
vn 0.120025 -0.990955 -0.060012
s off
g pCone1
usemtl initialShadingGroup
f 1/1/1 6/2/2 5/3/3 4/4/4 3/5/5 2/6/6
f 1/1/7 2/6/8 7/7/9
f 2/6/10 3/5/11 7/7/12
f 3/5/13 4/4/14 7/7/15
f 4/4/16 5/3/17 7/7/18
f 5/3/19 6/2/20 7/7/21
f 6/2/22 1/1/23 7/7/24
