# This file uses centimeters as units for non-parametric coordinates.

mtllib Sliding doors.mtl
g default
v 0.098042 0.002360 0.003248
v 0.222063 0.002360 0.003248
v 0.098042 0.225763 0.003248
v 0.222063 0.225763 0.003248
v 0.098042 0.225763 -0.003248
v 0.222063 0.225763 -0.003248
v 0.098042 0.002360 -0.003248
v 0.222063 0.002360 -0.003248
vt 0.454470 0.364587
vt 0.541369 0.364587
vt 0.541369 0.451486
vt 0.454470 0.451486
vt 0.541369 0.538385
vt 0.454470 0.538385
vt 0.541369 0.625285
vt 0.454470 0.625285
vt 0.541369 0.712184
vt 0.454470 0.712184
vt 0.628268 0.364587
vt 0.628268 0.451486
vt 0.367570 0.364587
vt 0.367570 0.451486
vn 0.000000 0.000000 1.000000
vn 0.000000 0.000000 1.000000
vn 0.000000 0.000000 1.000000
vn 0.000000 0.000000 1.000000
vn 0.000000 1.000000 0.000000
vn 0.000000 1.000000 0.000000
vn 0.000000 1.000000 0.000000
vn 0.000000 1.000000 0.000000
vn 0.000000 0.000000 -1.000000
vn 0.000000 0.000000 -1.000000
vn 0.000000 0.000000 -1.000000
vn 0.000000 0.000000 -1.000000
vn 0.000000 -1.000000 0.000000
vn 0.000000 -1.000000 0.000000
vn 0.000000 -1.000000 0.000000
vn 0.000000 -1.000000 0.000000
vn 1.000000 0.000000 0.000000
vn 1.000000 0.000000 0.000000
vn 1.000000 0.000000 0.000000
vn 1.000000 0.000000 0.000000
vn -1.000000 0.000000 0.000000
vn -1.000000 0.000000 0.000000
vn -1.000000 0.000000 0.000000
vn -1.000000 0.000000 0.000000
s off
g polySurface1 pCube9
usemtl lambert3SG
f 1/1/1 2/2/2 4/3/3 3/4/4
f 3/4/5 4/3/6 6/5/7 5/6/8
f 5/6/9 6/5/10 8/7/11 7/8/12
f 7/8/13 8/7/14 2/9/15 1/10/16
f 2/2/17 8/11/18 6/12/19 4/3/20
f 7/13/21 1/1/22 3/4/23 5/14/24
g default
v 0.098158 0.233334 0.006686
v 0.098158 0.222710 0.006686
v 0.222473 0.233334 0.006686
v 0.222473 0.222710 0.006686
v 0.222473 0.233334 -0.006686
v 0.222473 0.222710 -0.006686
v 0.098158 0.233334 -0.006686
v 0.098158 0.222710 -0.006686
vt 0.812541 0.366804
vt 0.899440 0.366804
vt 0.899440 0.453703
vt 0.812541 0.453703
vt 0.899440 0.540603
vt 0.812541 0.540603
vt 0.899440 0.627502
vt 0.812541 0.627502
vt 0.899440 0.714401
vt 0.812541 0.714401
vt 0.986340 0.366804
vt 0.986340 0.453703
vt 0.725642 0.366804
vt 0.725642 0.453703
vn 0.000000 0.000000 1.000000
vn 0.000000 0.000000 1.000000
vn 0.000000 0.000000 1.000000
vn 0.000000 0.000000 1.000000
vn 1.000000 0.000000 0.000000
vn 1.000000 0.000000 0.000000
vn 1.000000 0.000000 0.000000
vn 1.000000 0.000000 0.000000
vn 0.000000 0.000000 -1.000000
vn 0.000000 0.000000 -1.000000
vn 0.000000 0.000000 -1.000000
vn 0.000000 0.000000 -1.000000
vn -1.000000 0.000000 0.000000
vn -1.000000 0.000000 0.000000
vn -1.000000 0.000000 0.000000
vn -1.000000 0.000000 0.000000
vn 0.000000 -1.000000 0.000000
vn 0.000000 -1.000000 0.000000
vn 0.000000 -1.000000 0.000000
vn 0.000000 -1.000000 0.000000
vn 0.000000 1.000000 0.000000
vn 0.000000 1.000000 0.000000
vn 0.000000 1.000000 0.000000
vn 0.000000 1.000000 0.000000
s off
g pCube9 polySurface2
usemtl lambert2SG
f 9/15/25 10/16/26 12/17/27 11/18/28
f 11/18/29 12/17/30 14/19/31 13/20/32
f 13/20/33 14/19/34 16/21/35 15/22/36
f 15/22/37 16/21/38 10/23/39 9/24/40
f 10/16/41 16/25/42 14/26/43 12/17/44
f 15/27/45 9/15/46 11/18/47 13/28/48
g default
v 0.222185 0.002917 0.006686
v 0.232809 0.002917 0.006686
v 0.222185 0.233440 0.006686
v 0.232809 0.233440 0.006686
v 0.222185 0.233440 -0.006686
v 0.232809 0.233440 -0.006686
v 0.222185 0.002917 -0.006686
v 0.232809 0.002917 -0.006686
vt 0.094181 0.365696
vt 0.181080 0.365696
vt 0.181080 0.452595
vt 0.094181 0.452595
vt 0.181080 0.539494
vt 0.094181 0.539494
vt 0.181080 0.626393
vt 0.094181 0.626393
vt 0.181080 0.713292
vt 0.094181 0.713292
vt 0.267980 0.365696
vt 0.267980 0.452595
vt 0.007282 0.365696
vt 0.007282 0.452595
vn 0.000000 0.000000 1.000000
vn 0.000000 0.000000 1.000000
vn 0.000000 0.000000 1.000000
vn 0.000000 0.000000 1.000000
vn 0.000000 1.000000 0.000000
vn 0.000000 1.000000 0.000000
vn 0.000000 1.000000 0.000000
vn 0.000000 1.000000 0.000000
vn 0.000000 0.000000 -1.000000
vn 0.000000 0.000000 -1.000000
vn 0.000000 0.000000 -1.000000
vn 0.000000 0.000000 -1.000000
vn 0.000000 -1.000000 0.000000
vn 0.000000 -1.000000 0.000000
vn 0.000000 -1.000000 0.000000
vn 0.000000 -1.000000 0.000000
vn 1.000000 0.000000 0.000000
vn 1.000000 0.000000 0.000000
vn 1.000000 0.000000 0.000000
vn 1.000000 0.000000 0.000000
vn -1.000000 0.000000 0.000000
vn -1.000000 0.000000 0.000000
vn -1.000000 0.000000 0.000000
vn -1.000000 0.000000 0.000000
s off
g pCube9 polySurface3
usemtl lambert2SG
f 17/29/49 18/30/50 20/31/51 19/32/52
f 19/32/53 20/31/54 22/33/55 21/34/56
f 21/34/57 22/33/58 24/35/59 23/36/60
f 23/36/61 24/35/62 18/37/63 17/38/64
f 18/30/65 24/39/66 22/40/67 20/31/68
f 23/41/69 17/29/70 19/32/71 21/42/72
g default
v 0.087822 0.002917 0.006686
v 0.098446 0.002917 0.006686
v 0.087822 0.233440 0.006686
v 0.098446 0.233440 0.006686
v 0.087822 0.233440 -0.006686
v 0.098446 0.233440 -0.006686
v 0.087822 0.002917 -0.006686
v 0.098446 0.002917 -0.006686
vt 0.454470 0.008733
vt 0.541369 0.008733
vt 0.541369 0.095632
vt 0.454470 0.095632
vt 0.541369 0.182531
vt 0.454470 0.182531
vt 0.541369 0.269430
vt 0.454470 0.269430
vt 0.541369 0.356330
vt 0.454470 0.356330
vt 0.628268 0.008733
vt 0.628268 0.095632
vt 0.367570 0.008733
vt 0.367570 0.095632
vn 0.000000 0.000000 1.000000
vn 0.000000 0.000000 1.000000
vn 0.000000 0.000000 1.000000
vn 0.000000 0.000000 1.000000
vn 0.000000 1.000000 0.000000
vn 0.000000 1.000000 0.000000
vn 0.000000 1.000000 0.000000
vn 0.000000 1.000000 0.000000
vn 0.000000 0.000000 -1.000000
vn 0.000000 0.000000 -1.000000
vn 0.000000 0.000000 -1.000000
vn 0.000000 0.000000 -1.000000
vn 0.000000 -1.000000 0.000000
vn 0.000000 -1.000000 0.000000
vn 0.000000 -1.000000 0.000000
vn 0.000000 -1.000000 0.000000
vn 1.000000 0.000000 0.000000
vn 1.000000 0.000000 0.000000
vn 1.000000 0.000000 0.000000
vn 1.000000 0.000000 0.000000
vn -1.000000 0.000000 0.000000
vn -1.000000 0.000000 0.000000
vn -1.000000 0.000000 0.000000
vn -1.000000 0.000000 0.000000
s off
g pCube9 polySurface4
usemtl lambert2SG
f 25/43/73 26/44/74 28/45/75 27/46/76
f 27/46/77 28/45/78 30/47/79 29/48/80
f 29/48/81 30/47/82 32/49/83 31/50/84
f 31/50/85 32/49/86 26/51/87 25/52/88
f 26/44/89 32/53/90 30/54/91 28/45/92
f 31/55/93 25/43/94 27/46/95 29/56/96
g default
v -0.047612 0.233334 0.006686
v -0.047612 0.222710 0.006686
v 0.076703 0.233334 0.006686
v 0.076703 0.222710 0.006686
v 0.076703 0.233334 -0.006686
v 0.076703 0.222710 -0.006686
v -0.047612 0.233334 -0.006686
v -0.047612 0.222710 -0.006686
vt 0.630734 0.099636
vt 0.717633 0.099636
vt 0.717633 0.186535
vt 0.630734 0.186535
vt 0.717633 0.273435
vt 0.630734 0.273435
vt 0.717633 0.360334
vt 0.630734 0.360334
vt 0.717633 0.447233
vt 0.630734 0.447233
vt 0.804532 0.099636
vt 0.804532 0.186535
vt 0.543835 0.099636
vt 0.543835 0.186535
vn 0.000000 0.000000 1.000000
vn 0.000000 0.000000 1.000000
vn 0.000000 0.000000 1.000000
vn 0.000000 0.000000 1.000000
vn 1.000000 0.000000 0.000000
vn 1.000000 0.000000 0.000000
vn 1.000000 0.000000 0.000000
vn 1.000000 0.000000 0.000000
vn 0.000000 0.000000 -1.000000
vn 0.000000 0.000000 -1.000000
vn 0.000000 0.000000 -1.000000
vn 0.000000 0.000000 -1.000000
vn -1.000000 0.000000 0.000000
vn -1.000000 0.000000 0.000000
vn -1.000000 0.000000 0.000000
vn -1.000000 0.000000 0.000000
vn 0.000000 -1.000000 0.000000
vn 0.000000 -1.000000 0.000000
vn 0.000000 -1.000000 0.000000
vn 0.000000 -1.000000 0.000000
vn 0.000000 1.000000 0.000000
vn 0.000000 1.000000 0.000000
vn 0.000000 1.000000 0.000000
vn 0.000000 1.000000 0.000000
s off
g polySurface5 pCube10
usemtl lambert2SG
f 33/57/97 34/58/98 36/59/99 35/60/100
f 35/60/101 36/59/102 38/61/103 37/62/104
f 37/62/105 38/61/106 40/63/107 39/64/108
f 39/64/109 40/63/110 34/65/111 33/66/112
f 34/58/113 40/67/114 38/68/115 36/59/116
f 39/69/117 33/57/118 35/60/119 37/70/120
g default
v 0.076766 0.002917 0.006686
v 0.087390 0.002917 0.006686
v 0.076766 0.233440 0.006686
v 0.087390 0.233440 0.006686
v 0.076766 0.233440 -0.006686
v 0.087390 0.233440 -0.006686
v 0.076766 0.002917 -0.006686
v 0.087390 0.002917 -0.006686
vt 0.274880 0.101853
vt 0.361779 0.101853
vt 0.361779 0.188753
vt 0.274880 0.188753
vt 0.361779 0.275652
vt 0.274880 0.275652
vt 0.361779 0.362551
vt 0.274880 0.362551
vt 0.361779 0.449450
vt 0.274880 0.449450
vt 0.448678 0.101853
vt 0.448678 0.188753
vt 0.187980 0.101853
vt 0.187980 0.188753
vn 0.000000 0.000000 1.000000
vn 0.000000 0.000000 1.000000
vn 0.000000 0.000000 1.000000
vn 0.000000 0.000000 1.000000
vn 0.000000 1.000000 0.000000
vn 0.000000 1.000000 0.000000
vn 0.000000 1.000000 0.000000
vn 0.000000 1.000000 0.000000
vn 0.000000 0.000000 -1.000000
vn 0.000000 0.000000 -1.000000
vn 0.000000 0.000000 -1.000000
vn 0.000000 0.000000 -1.000000
vn 0.000000 -1.000000 0.000000
vn 0.000000 -1.000000 0.000000
vn 0.000000 -1.000000 0.000000
vn 0.000000 -1.000000 0.000000
vn 1.000000 0.000000 0.000000
vn 1.000000 0.000000 0.000000
vn 1.000000 0.000000 0.000000
vn 1.000000 0.000000 0.000000
vn -1.000000 0.000000 0.000000
vn -1.000000 0.000000 0.000000
vn -1.000000 0.000000 0.000000
vn -1.000000 0.000000 0.000000
s off
g pCube10 polySurface6
usemtl lambert2SG
f 41/71/121 42/72/122 44/73/123 43/74/124
f 43/74/125 44/73/126 46/75/127 45/76/128
f 45/76/129 46/75/130 48/77/131 47/78/132
f 47/78/133 48/77/134 42/79/135 41/80/136
f 42/72/137 48/81/138 46/82/139 44/73/140
f 47/83/141 41/71/142 43/74/143 45/84/144
g default
v -0.057172 0.002917 0.006686
v -0.046548 0.002917 0.006686
v -0.057172 0.233440 0.006686
v -0.046548 0.233440 0.006686
v -0.057172 0.233440 -0.006686
v -0.046548 0.233440 -0.006686
v -0.057172 0.002917 -0.006686
v -0.046548 0.002917 -0.006686
vt 0.809215 0.008733
vt 0.896115 0.008733
vt 0.896115 0.095632
vt 0.809215 0.095632
vt 0.896115 0.182531
vt 0.809215 0.182531
vt 0.896115 0.269430
vt 0.809215 0.269430
vt 0.896115 0.356330
vt 0.809215 0.356330
vt 0.983014 0.008733
vt 0.983014 0.095632
vt 0.722316 0.008733
vt 0.722316 0.095632
vn 0.000000 0.000000 1.000000
vn 0.000000 0.000000 1.000000
vn 0.000000 0.000000 1.000000
vn 0.000000 0.000000 1.000000
vn 0.000000 1.000000 0.000000
vn 0.000000 1.000000 0.000000
vn 0.000000 1.000000 0.000000
vn 0.000000 1.000000 0.000000
vn 0.000000 0.000000 -1.000000
vn 0.000000 0.000000 -1.000000
vn 0.000000 0.000000 -1.000000
vn 0.000000 0.000000 -1.000000
vn 0.000000 -1.000000 0.000000
vn 0.000000 -1.000000 0.000000
vn 0.000000 -1.000000 0.000000
vn 0.000000 -1.000000 0.000000
vn 1.000000 0.000000 0.000000
vn 1.000000 0.000000 0.000000
vn 1.000000 0.000000 0.000000
vn 1.000000 0.000000 0.000000
vn -1.000000 0.000000 0.000000
vn -1.000000 0.000000 0.000000
vn -1.000000 0.000000 0.000000
vn -1.000000 0.000000 0.000000
s off
g pCube10 polySurface7
usemtl lambert2SG
f 49/85/145 50/86/146 52/87/147 51/88/148
f 51/88/149 52/87/150 54/89/151 53/90/152
f 53/90/153 54/89/154 56/91/155 55/92/156
f 55/92/157 56/91/158 50/93/159 49/94/160
f 50/86/161 56/95/162 54/96/163 52/87/164
f 55/97/165 49/85/166 51/88/167 53/98/168
g default
v -0.046703 0.002360 0.003248
v 0.077318 0.002360 0.003248
v -0.046703 0.225763 0.003248
v 0.077318 0.225763 0.003248
v -0.046703 0.225763 -0.003248
v 0.077318 0.225763 -0.003248
v -0.046703 0.002360 -0.003248
v 0.077318 0.002360 -0.003248
vt 0.096398 0.008733
vt 0.183297 0.008733
vt 0.183297 0.095632
vt 0.096398 0.095632
vt 0.183297 0.182531
vt 0.096398 0.182531
vt 0.183297 0.269430
vt 0.096398 0.269430
vt 0.183297 0.356330
vt 0.096398 0.356330
vt 0.270197 0.008733
vt 0.270197 0.095632
vt 0.009499 0.008733
vt 0.009499 0.095632
vn 0.000000 0.000000 1.000000
vn 0.000000 0.000000 1.000000
vn 0.000000 0.000000 1.000000
vn 0.000000 0.000000 1.000000
vn 0.000000 1.000000 0.000000
vn 0.000000 1.000000 0.000000
vn 0.000000 1.000000 0.000000
vn 0.000000 1.000000 0.000000
vn 0.000000 0.000000 -1.000000
vn 0.000000 0.000000 -1.000000
vn 0.000000 0.000000 -1.000000
vn 0.000000 0.000000 -1.000000
vn 0.000000 -1.000000 0.000000
vn 0.000000 -1.000000 0.000000
vn 0.000000 -1.000000 0.000000
vn 0.000000 -1.000000 0.000000
vn 1.000000 0.000000 0.000000
vn 1.000000 0.000000 0.000000
vn 1.000000 0.000000 0.000000
vn 1.000000 0.000000 0.000000
vn -1.000000 0.000000 0.000000
vn -1.000000 0.000000 0.000000
vn -1.000000 0.000000 0.000000
vn -1.000000 0.000000 0.000000
s off
g pCube10 polySurface8
usemtl lambert3SG
f 57/99/169 58/100/170 60/101/171 59/102/172
f 59/102/173 60/101/174 62/103/175 61/104/176
f 61/104/177 62/103/178 64/105/179 63/106/180
f 63/106/181 64/105/182 58/107/183 57/108/184
f 58/100/185 64/109/186 62/110/187 60/101/188
f 63/111/189 57/99/190 59/102/191 61/112/192
